<svg xmlns="http://www.w3.org/2000/svg" xmlns:xlink="http://www.w3.org/1999/xlink" width="500" zoomAndPan="magnify" viewBox="0 0 375 374.999991" height="500" preserveAspectRatio="xMidYMid meet" version="1.0"><defs><g/><clipPath id="id1"><path d="M 99.429688 151.164062 L 299 151.164062 L 299 197 L 99.429688 197 Z M 99.429688 151.164062 " clip-rule="nonzero"/></clipPath><clipPath id="id2"><path d="M 182 187 L 279 187 L 279 238.914062 L 182 238.914062 Z M 182 187 " clip-rule="nonzero"/></clipPath><clipPath id="id3"><path d="M 231 188 L 300.429688 188 L 300.429688 226 L 231 226 Z M 231 188 " clip-rule="nonzero"/></clipPath></defs><g clip-path="url(#id1)"><path fill="#d6b26d" d="M 119.234375 181.617188 C 121.417969 181.023438 123.757812 180.515625 126.230469 180.011719 L 130.039062 179.226562 C 131.339844 178.945312 132.671875 178.660156 134.039062 178.265625 C 136.757812 177.488281 139.53125 176.28125 142.089844 174.550781 C 143.371094 173.691406 144.597656 172.714844 145.777344 171.683594 C 146.957031 170.652344 148.097656 169.570312 149.257812 168.503906 C 151.558594 166.367188 153.976562 164.335938 156.738281 162.675781 C 159.480469 161.007812 162.550781 159.671875 165.765625 158.648438 C 168.964844 157.664062 172.4375 157.050781 175.984375 156.554688 C 183.09375 155.597656 190.578125 155.152344 198.242188 154.90625 C 205.910156 154.679688 213.417969 154.667969 220.632812 154.925781 C 227.84375 155.210938 234.792969 155.792969 241.292969 156.894531 C 244.542969 157.449219 247.683594 158.136719 250.65625 159.023438 C 253.628906 159.910156 256.441406 160.992188 258.953125 162.378906 C 260.210938 163.074219 261.386719 163.847656 262.445312 164.710938 L 263.269531 165.394531 C 263.550781 165.625 263.832031 165.847656 264.113281 166.070312 C 264.679688 166.511719 265.25 166.933594 265.824219 167.34375 C 268.121094 168.972656 270.472656 170.3125 272.800781 171.398438 C 277.460938 173.582031 281.960938 174.699219 285.824219 175.742188 C 287.761719 176.265625 289.550781 176.78125 291.125 177.433594 C 292.699219 178.082031 294.046875 178.886719 295.070312 179.839844 C 296.097656 180.792969 296.78125 181.863281 297.238281 182.84375 C 297.691406 183.828125 297.941406 184.71875 298.105469 185.445312 C 298.417969 186.898438 298.445312 187.6875 298.457031 187.6875 C 298.445312 187.6875 298.421875 186.902344 298.140625 185.4375 C 297.992188 184.707031 297.769531 183.804688 297.34375 182.796875 C 296.914062 181.792969 296.261719 180.675781 295.246094 179.660156 C 294.234375 178.640625 292.878906 177.753906 291.304688 177.019531 C 289.726562 176.285156 287.941406 175.679688 286.027344 175.058594 C 282.199219 173.835938 277.820312 172.507812 273.40625 170.171875 C 271.199219 169.011719 268.996094 167.613281 266.859375 165.945312 C 266.328125 165.53125 265.796875 165.097656 265.273438 164.648438 C 265.011719 164.425781 264.75 164.195312 264.492188 163.964844 L 263.695312 163.242188 C 262.574219 162.242188 261.332031 161.351562 260.019531 160.550781 C 257.386719 158.949219 254.46875 157.699219 251.410156 156.660156 C 248.347656 155.621094 245.128906 154.804688 241.808594 154.132812 C 235.164062 152.789062 228.105469 152.027344 220.785156 151.621094 C 213.460938 151.242188 205.894531 151.191406 198.136719 151.417969 C 190.382812 151.667969 182.804688 152.179688 175.507812 153.289062 C 173.683594 153.566406 171.878906 153.890625 170.09375 154.28125 C 168.308594 154.671875 166.546875 155.125 164.8125 155.710938 C 163.085938 156.304688 161.445312 156.972656 159.839844 157.738281 C 158.242188 158.5 156.703125 159.351562 155.25 160.300781 C 153.792969 161.246094 152.421875 162.28125 151.144531 163.367188 C 149.871094 164.457031 148.683594 165.59375 147.550781 166.71875 C 145.289062 168.972656 143.199219 171.136719 140.882812 172.824219 C 138.578125 174.527344 136.070312 175.753906 133.523438 176.613281 C 132.257812 177.042969 130.957031 177.386719 129.683594 177.726562 L 125.925781 178.6875 C 123.472656 179.308594 121.128906 179.9375 118.945312 180.648438 C 116.761719 181.355469 114.738281 182.144531 112.90625 183.015625 C 109.238281 184.753906 106.40625 186.890625 104.429688 188.925781 C 102.4375 190.960938 101.242188 192.835938 100.492188 194.121094 C 99.75 195.410156 99.4375 196.128906 99.429688 196.128906 C 99.4375 196.132812 99.753906 195.414062 100.527344 194.136719 C 101.300781 192.875 102.554688 191.042969 104.605469 189.105469 C 105.628906 188.140625 106.851562 187.160156 108.285156 186.230469 C 109.71875 185.300781 111.363281 184.433594 113.199219 183.660156 C 115.03125 182.886719 117.054688 182.210938 119.234375 181.617188 Z M 119.234375 181.617188 " fill-opacity="1" fill-rule="evenodd"/></g><path fill="#d6b26d" d="M 191.488281 183.875 C 193.121094 183.589844 194.765625 183.316406 196.425781 183.054688 C 203.054688 182.003906 209.558594 181.125 215.847656 180.382812 C 222.140625 179.640625 228.222656 179.039062 234.027344 178.578125 C 245.632812 177.660156 256.125 177.320312 264.929688 177.507812 C 269.335938 177.597656 273.316406 177.816406 276.804688 178.117188 C 280.289062 178.417969 283.28125 178.800781 285.71875 179.1875 C 288.152344 179.574219 290.03125 179.960938 291.300781 180.242188 C 292.566406 180.527344 293.226562 180.703125 293.226562 180.699219 C 293.222656 180.703125 292.566406 180.527344 291.304688 180.226562 C 290.039062 179.925781 288.167969 179.503906 285.742188 179.0625 C 283.3125 178.621094 280.324219 178.160156 276.839844 177.765625 C 273.351562 177.371094 269.367188 177.035156 264.957031 176.824219 C 256.132812 176.394531 245.59375 176.457031 233.929688 177.175781 C 229.191406 177.46875 224.257812 177.871094 219.183594 178.375 C 219.296875 177.945312 219.445312 177.390625 219.640625 176.726562 C 219.898438 175.859375 220.234375 174.804688 220.679688 173.605469 C 221.125 172.40625 221.675781 171.058594 222.394531 169.628906 C 223.117188 168.199219 224 166.6875 225.15625 165.238281 C 226.308594 163.800781 227.75 162.421875 229.535156 161.492188 C 230.421875 161.03125 231.390625 160.683594 232.414062 160.484375 C 232.929688 160.382812 233.441406 160.332031 234.007812 160.285156 C 234.5625 160.242188 235.125 160.210938 235.691406 160.191406 C 237.957031 160.117188 240.3125 160.265625 242.695312 160.621094 C 247.472656 161.34375 251.898438 162.800781 255.792969 164.429688 C 256.28125 164.632812 256.761719 164.84375 257.230469 165.050781 C 257.710938 165.261719 258.148438 165.464844 258.582031 165.695312 C 259.449219 166.152344 260.269531 166.664062 261.050781 167.183594 C 262.617188 168.226562 264.046875 169.28125 265.398438 170.183594 C 266.742188 171.09375 268 171.863281 269.148438 172.464844 C 270.289062 173.066406 271.316406 173.5 272.167969 173.804688 C 273.023438 174.113281 273.703125 174.292969 274.164062 174.410156 C 274.628906 174.523438 274.871094 174.570312 274.871094 174.574219 C 274.871094 174.570312 274.625 174.519531 274.167969 174.390625 C 273.714844 174.257812 273.042969 174.042969 272.214844 173.6875 C 271.386719 173.332031 270.402344 172.832031 269.320312 172.152344 C 268.238281 171.480469 267.0625 170.625 265.796875 169.628906 C 264.53125 168.636719 263.1875 167.488281 261.664062 166.320312 C 260.898438 165.738281 260.085938 165.152344 259.191406 164.609375 C 258.746094 164.339844 258.265625 164.085938 257.800781 163.851562 C 257.332031 163.613281 256.855469 163.375 256.367188 163.144531 C 254.417969 162.210938 252.316406 161.339844 250.070312 160.601562 C 247.828125 159.867188 245.445312 159.265625 242.953125 158.890625 C 240.464844 158.519531 237.992188 158.398438 235.613281 158.539062 C 235.019531 158.574219 234.429688 158.625 233.851562 158.6875 C 233.28125 158.75 232.671875 158.832031 232.09375 158.972656 C 230.929688 159.242188 229.832031 159.6875 228.855469 160.261719 C 226.890625 161.414062 225.425781 163.011719 224.3125 164.605469 C 223.195312 166.210938 222.402344 167.835938 221.777344 169.34375 C 221.15625 170.851562 220.703125 172.253906 220.34375 173.492188 C 219.988281 174.730469 219.726562 175.808594 219.523438 176.691406 C 219.367188 177.378906 219.242188 177.941406 219.152344 178.378906 C 218.007812 178.492188 216.863281 178.609375 215.703125 178.734375 C 215.714844 178.71875 215.726562 178.699219 215.738281 178.683594 C 216.15625 178.0625 216.484375 177.453125 216.796875 176.832031 C 217.109375 176.214844 217.394531 175.59375 217.664062 174.96875 C 218.203125 173.722656 218.683594 172.46875 219.117188 171.203125 C 219.550781 169.941406 219.933594 168.671875 220.257812 167.386719 C 220.578125 166.105469 220.839844 164.808594 220.976562 163.484375 C 221.042969 162.820312 221.074219 162.148438 221.03125 161.453125 C 221.011719 161.105469 220.96875 160.753906 220.890625 160.390625 C 220.851562 160.214844 220.800781 160.03125 220.734375 159.847656 C 220.703125 159.753906 220.664062 159.664062 220.625 159.570312 C 220.574219 159.457031 220.507812 159.34375 220.445312 159.246094 C 220.171875 158.847656 219.851562 158.597656 219.539062 158.390625 C 219.226562 158.1875 218.917969 158.03125 218.605469 157.894531 C 217.980469 157.621094 217.363281 157.429688 216.746094 157.261719 C 215.519531 156.9375 214.300781 156.722656 213.097656 156.546875 C 211.894531 156.375 210.703125 156.25 209.53125 156.148438 C 204.832031 155.761719 200.367188 155.738281 196.199219 155.824219 C 192.027344 155.917969 188.152344 156.152344 184.621094 156.460938 C 177.5625 157.085938 171.886719 158.027344 168.050781 159 C 166.128906 159.480469 164.667969 159.972656 163.703125 160.371094 C 162.738281 160.765625 162.265625 161.042969 162.265625 161.039062 C 162.265625 161.042969 162.742188 160.765625 163.710938 160.386719 C 164.679688 160.007812 166.148438 159.546875 168.078125 159.121094 C 171.9375 158.257812 177.621094 157.519531 184.671875 157.140625 C 188.195312 156.953125 192.058594 156.847656 196.207031 156.878906 C 200.351562 156.917969 204.785156 157.0625 209.398438 157.546875 C 210.550781 157.671875 211.710938 157.816406 212.875 158.007812 C 214.039062 158.203125 215.207031 158.429688 216.339844 158.75 C 216.902344 158.914062 217.457031 159.101562 217.964844 159.332031 C 218.21875 159.445312 218.457031 159.574219 218.664062 159.714844 C 218.867188 159.851562 219.035156 160.007812 219.113281 160.132812 C 219.132812 160.164062 219.144531 160.1875 219.15625 160.21875 C 219.179688 160.269531 219.199219 160.320312 219.21875 160.378906 C 219.257812 160.488281 219.289062 160.609375 219.316406 160.738281 C 219.367188 160.988281 219.398438 161.265625 219.410156 161.546875 C 219.441406 162.113281 219.40625 162.710938 219.339844 163.3125 C 219.203125 164.515625 218.9375 165.746094 218.625 166.96875 C 218.304688 168.195312 217.921875 169.421875 217.496094 170.640625 C 217.070312 171.863281 216.597656 173.078125 216.074219 174.277344 C 215.8125 174.875 215.539062 175.46875 215.246094 176.046875 C 214.957031 176.625 214.640625 177.203125 214.304688 177.699219 C 214.285156 177.722656 214.308594 177.707031 214.289062 177.710938 L 213.402344 177.558594 C 212.738281 177.449219 212.074219 177.34375 211.410156 177.246094 C 210.085938 177.046875 208.765625 176.875 207.453125 176.714844 C 204.832031 176.398438 202.246094 176.140625 199.703125 175.933594 C 194.617188 175.515625 189.699219 175.265625 185.019531 175.117188 C 175.652344 174.832031 167.214844 174.941406 160.140625 175.238281 C 153.066406 175.535156 147.351562 176.039062 143.429688 176.585938 C 141.46875 176.859375 139.957031 177.140625 138.945312 177.378906 C 137.929688 177.613281 137.410156 177.792969 137.410156 177.789062 C 137.410156 177.792969 137.929688 177.617188 138.949219 177.394531 C 139.964844 177.175781 141.480469 176.925781 143.445312 176.710938 C 147.375 176.273438 153.09375 175.976562 160.15625 175.921875 C 167.222656 175.867188 175.636719 176.03125 184.960938 176.523438 C 189.621094 176.773438 194.507812 177.105469 199.558594 177.582031 C 202.082031 177.820312 204.648438 178.09375 207.242188 178.421875 C 208.539062 178.589844 209.84375 178.769531 211.152344 178.96875 C 211.503906 179.019531 211.859375 179.078125 212.210938 179.136719 C 206.976562 179.746094 201.617188 180.46875 196.160156 181.332031 C 194.492188 181.597656 192.839844 181.875 191.195312 182.164062 C 189.550781 182.460938 187.9375 182.746094 186.289062 183.125 C 184.644531 183.515625 183.039062 184.0625 181.523438 184.792969 C 180.003906 185.523438 178.597656 186.445312 177.324219 187.476562 C 176.046875 188.5 174.902344 189.617188 173.78125 190.691406 C 172.660156 191.765625 171.554688 192.800781 170.390625 193.726562 C 168.070312 195.585938 165.480469 196.957031 162.789062 197.902344 C 160.101562 198.859375 157.34375 199.4375 154.640625 199.832031 C 151.933594 200.226562 149.273438 200.429688 146.695312 200.539062 C 144.117188 200.652344 141.628906 200.644531 139.214844 200.621094 L 132.292969 200.628906 C 127.890625 200.609375 123.90625 200.457031 120.445312 199.988281 C 116.996094 199.515625 114.027344 198.726562 111.945312 197.40625 C 110.90625 196.753906 110.125 195.957031 109.648438 195.140625 C 109.164062 194.324219 108.980469 193.519531 108.917969 192.878906 C 108.859375 192.230469 108.90625 191.734375 108.941406 191.402344 C 108.972656 191.15625 109 191.003906 109.011719 190.941406 C 109 191.003906 108.972656 191.15625 108.941406 191.402344 C 108.902344 191.734375 108.847656 192.230469 108.902344 192.878906 C 108.953125 193.523438 109.125 194.332031 109.597656 195.167969 C 110.0625 196.003906 110.84375 196.828125 111.875 197.511719 C 113.953125 198.894531 116.929688 199.765625 120.390625 200.335938 C 123.863281 200.90625 127.867188 201.167969 132.28125 201.3125 L 139.199219 201.488281 C 141.597656 201.574219 144.125 201.644531 146.726562 201.59375 C 149.332031 201.546875 152.03125 201.398438 154.804688 201.058594 C 157.574219 200.714844 160.417969 200.175781 163.25 199.230469 C 164.660156 198.757812 166.066406 198.175781 167.425781 197.460938 C 168.789062 196.75 170.101562 195.902344 171.339844 194.941406 C 173.839844 193.035156 175.949219 190.671875 178.355469 188.765625 C 179.558594 187.8125 180.855469 186.980469 182.253906 186.320312 C 183.648438 185.65625 185.144531 185.160156 186.6875 184.796875 C 188.222656 184.449219 189.867188 184.160156 191.488281 183.875 Z M 191.488281 183.875 " fill-opacity="1" fill-rule="evenodd"/><path fill="#d6b26d" d="M 109.003906 190.9375 C 109.007812 190.914062 109.007812 190.902344 109.007812 190.902344 C 109.007812 190.902344 109.007812 190.914062 109.003906 190.9375 Z M 109.003906 190.9375 " fill-opacity="1" fill-rule="evenodd"/><path fill="#d6b26d" d="M 182.878906 229.582031 C 182.832031 229.59375 182.800781 229.605469 182.800781 229.605469 C 182.800781 229.605469 182.828125 229.59375 182.878906 229.582031 Z M 182.878906 229.582031 " fill-opacity="1" fill-rule="evenodd"/><g clip-path="url(#id2)"><path fill="#d6b26d" d="M 241.105469 219.988281 C 241.691406 219.875 242.296875 219.75 242.855469 219.621094 C 243.003906 219.585938 243.125 219.566406 243.265625 219.539062 L 244.554688 219.304688 L 247.953125 218.710938 C 250.199219 218.3125 252.394531 217.90625 254.523438 217.457031 C 258.785156 216.546875 262.804688 215.476562 266.386719 213.96875 C 268.175781 213.210938 269.851562 212.339844 271.328125 211.273438 C 272.058594 210.742188 272.753906 210.164062 273.339844 209.503906 C 273.925781 208.859375 274.429688 208.171875 274.871094 207.472656 C 275.75 206.066406 276.367188 204.621094 276.839844 203.226562 C 277.308594 201.832031 277.632812 200.484375 277.878906 199.21875 C 278.371094 196.683594 278.566406 194.476562 278.695312 192.679688 C 278.824219 190.882812 278.871094 189.488281 278.910156 188.542969 L 278.960938 187.101562 L 278.894531 188.539062 C 278.839844 189.484375 278.765625 190.878906 278.589844 192.671875 C 278.414062 194.460938 278.148438 196.65625 277.585938 199.15625 C 277.300781 200.402344 276.933594 201.722656 276.425781 203.078125 C 275.917969 204.433594 275.265625 205.824219 274.375 207.148438 C 273.925781 207.804688 273.421875 208.449219 272.84375 209.042969 C 272.277344 209.640625 271.609375 210.160156 270.890625 210.648438 C 269.449219 211.621094 267.800781 212.414062 266.035156 213.101562 C 262.5 214.464844 258.511719 215.40625 254.277344 216.199219 C 252.15625 216.59375 249.964844 216.949219 247.71875 217.292969 L 244.308594 217.824219 L 243.441406 217.964844 L 243.007812 218.039062 C 242.859375 218.0625 242.691406 218.089844 242.550781 218.121094 C 241.96875 218.242188 241.410156 218.347656 240.828125 218.449219 C 238.523438 218.84375 236.140625 219.097656 233.707031 219.289062 C 232.488281 219.378906 231.257812 219.460938 230.011719 219.527344 L 228.140625 219.625 L 227.363281 219.664062 C 227.363281 219.664062 227.359375 219.664062 227.359375 219.664062 L 227.363281 219.65625 L 227.527344 218.746094 C 227.644531 218.070312 227.746094 217.390625 227.835938 216.710938 C 228.015625 215.347656 228.148438 213.96875 228.230469 212.574219 C 228.386719 209.761719 228.332031 206.953125 227.945312 204.203125 C 227.75 202.832031 227.464844 201.472656 227.054688 200.148438 C 226.648438 198.824219 226.113281 197.539062 225.394531 196.347656 C 224.683594 195.15625 223.777344 194.0625 222.6875 193.195312 C 221.605469 192.324219 220.332031 191.691406 219.042969 191.335938 C 217.785156 190.949219 216.398438 190.773438 215.070312 190.910156 C 213.738281 191.042969 212.464844 191.476562 211.34375 192.089844 C 210.21875 192.699219 209.230469 193.480469 208.355469 194.328125 C 207.480469 195.175781 206.71875 196.09375 206.027344 197.035156 C 204.65625 198.921875 203.574219 200.898438 202.652344 202.855469 C 200.820312 206.773438 199.59375 210.601562 198.675781 214.136719 C 198.5625 214.601562 198.476562 215.015625 198.359375 215.441406 C 198.246094 215.863281 198.121094 216.277344 197.984375 216.679688 C 197.707031 217.484375 197.386719 218.253906 197.019531 218.972656 C 196.292969 220.414062 195.394531 221.664062 194.433594 222.722656 C 192.503906 224.847656 190.386719 226.214844 188.617188 227.183594 C 186.828125 228.148438 185.351562 228.71875 184.347656 229.085938 C 183.554688 229.371094 183.058594 229.527344 182.878906 229.582031 C 183.058594 229.527344 183.554688 229.375 184.351562 229.105469 C 185.363281 228.75 186.851562 228.214844 188.671875 227.296875 C 190.480469 226.371094 192.65625 225.0625 194.691406 222.964844 C 195.707031 221.917969 196.667969 220.667969 197.46875 219.210938 C 197.871094 218.484375 198.230469 217.703125 198.539062 216.882812 C 198.695312 216.472656 198.839844 216.050781 198.972656 215.617188 C 199.105469 215.195312 199.21875 214.734375 199.335938 214.316406 C 200.359375 210.851562 201.699219 207.097656 203.601562 203.316406 C 204.558594 201.4375 205.664062 199.542969 207.019531 197.78125 C 207.699219 196.902344 208.441406 196.054688 209.265625 195.292969 C 210.089844 194.53125 211 193.847656 212 193.332031 C 212.269531 193.195312 212.542969 193.070312 212.820312 192.960938 C 212.933594 193.003906 213.066406 193.054688 213.238281 193.113281 C 213.71875 193.28125 214.425781 193.515625 215.28125 193.921875 C 216.132812 194.324219 217.132812 194.90625 218.164062 195.75 C 219.191406 196.589844 220.246094 197.6875 221.203125 199.058594 C 223.125 201.792969 224.625 205.632812 225.097656 210.070312 C 225.335938 212.285156 225.324219 214.640625 225.023438 217.050781 C 224.722656 219.457031 224.132812 221.914062 223.195312 224.300781 C 222.261719 226.683594 221.019531 228.875 219.53125 230.746094 C 218.046875 232.617188 216.308594 234.164062 214.433594 235.230469 C 212.566406 236.304688 210.566406 236.878906 208.675781 236.949219 C 206.777344 237.027344 205.003906 236.617188 203.511719 235.953125 C 202.007812 235.292969 200.777344 234.394531 199.789062 233.503906 C 198.796875 232.605469 198.039062 231.714844 197.449219 230.960938 C 196.285156 229.4375 195.738281 228.492188 195.582031 228.566406 C 195.511719 228.601562 195.550781 228.882812 195.722656 229.378906 C 195.898438 229.875 196.199219 230.59375 196.699219 231.464844 C 197.199219 232.335938 197.890625 233.367188 198.875 234.429688 C 199.859375 235.484375 201.144531 236.582031 202.800781 237.4375 C 204.453125 238.292969 206.484375 238.878906 208.710938 238.882812 C 210.933594 238.894531 213.304688 238.289062 215.476562 237.109375 C 217.65625 235.9375 219.640625 234.230469 221.3125 232.183594 C 222.984375 230.132812 224.351562 227.742188 225.367188 225.15625 C 225.851562 223.925781 226.238281 222.675781 226.546875 221.429688 L 228.230469 221.339844 L 230.117188 221.222656 C 231.367188 221.144531 232.609375 221.054688 233.84375 220.945312 C 236.308594 220.726562 238.738281 220.429688 241.105469 219.988281 Z M 222.523438 198.074219 C 221.390625 196.640625 220.144531 195.515625 218.941406 194.703125 C 217.734375 193.886719 216.578125 193.375 215.609375 193.078125 C 214.816406 192.832031 214.15625 192.722656 213.652344 192.675781 C 214.160156 192.53125 214.675781 192.429688 215.207031 192.386719 C 216.332031 192.296875 217.460938 192.449219 218.601562 192.820312 C 219.730469 193.152344 220.769531 193.695312 221.679688 194.445312 C 222.589844 195.191406 223.355469 196.136719 223.972656 197.191406 C 225.210938 199.320312 225.878906 201.851562 226.238281 204.445312 C 226.300781 204.898438 226.339844 205.359375 226.382812 205.820312 C 225.5 202.753906 224.140625 200.097656 222.523438 198.074219 Z M 222.523438 198.074219 " fill-opacity="1" fill-rule="evenodd"/></g><path fill="#d6b26d" d="M 204.609375 220.808594 C 204.792969 222.265625 205.125 223.921875 205.808594 225.664062 C 206.152344 226.535156 206.589844 227.421875 207.171875 228.28125 C 207.757812 229.136719 208.5 229.96875 209.476562 230.597656 C 210.445312 231.230469 211.6875 231.597656 212.945312 231.484375 C 214.207031 231.382812 215.414062 230.824219 216.429688 230.054688 C 217.453125 229.285156 218.316406 228.308594 219.0625 227.234375 C 219.808594 226.160156 220.433594 224.984375 220.960938 223.746094 C 222.007812 221.269531 222.667969 218.546875 222.957031 215.726562 C 223.238281 212.910156 223.136719 210.109375 222.601562 207.472656 C 222.332031 206.15625 221.953125 204.878906 221.4375 203.675781 C 220.921875 202.476562 220.265625 201.347656 219.421875 200.386719 C 218.578125 199.429688 217.511719 198.644531 216.292969 198.292969 C 215.082031 197.929688 213.792969 198.042969 212.71875 198.46875 C 211.636719 198.886719 210.742188 199.554688 209.996094 200.273438 C 209.253906 201 208.648438 201.785156 208.140625 202.566406 C 207.121094 204.140625 206.46875 205.695312 205.996094 207.085938 C 205.527344 208.476562 205.25 209.710938 205.074219 210.722656 C 204.730469 212.75 204.746094 213.894531 204.8125 213.898438 C 204.902344 213.90625 205.042969 212.785156 205.515625 210.816406 C 205.757812 209.835938 206.09375 208.640625 206.609375 207.304688 C 207.125 205.976562 207.8125 204.492188 208.824219 203.027344 C 209.328125 202.296875 209.917969 201.574219 210.617188 200.925781 C 211.3125 200.285156 212.128906 199.710938 213.058594 199.371094 C 213.980469 199.027344 215.019531 198.964844 216 199.273438 C 216.984375 199.574219 217.878906 200.238281 218.617188 201.09375 C 219.355469 201.953125 219.945312 202.992188 220.417969 204.113281 C 220.886719 205.234375 221.238281 206.445312 221.484375 207.699219 C 221.976562 210.207031 222.070312 212.898438 221.800781 215.613281 C 221.527344 218.328125 220.898438 220.945312 219.914062 223.308594 C 219.421875 224.484375 218.835938 225.601562 218.152344 226.605469 C 217.464844 227.609375 216.679688 228.511719 215.785156 229.203125 C 214.890625 229.894531 213.878906 230.367188 212.859375 230.46875 C 211.835938 230.570312 210.832031 230.304688 209.996094 229.78125 C 209.152344 229.265625 208.46875 228.539062 207.914062 227.765625 C 207.359375 226.996094 206.925781 226.167969 206.574219 225.355469 C 205.878906 223.71875 205.5 222.125 205.257812 220.71875 C 205.023438 219.308594 204.929688 218.070312 204.890625 217.058594 C 204.816406 215.035156 204.90625 213.90625 204.8125 213.898438 C 204.746094 213.890625 204.503906 215.003906 204.433594 217.0625 C 204.402344 218.089844 204.429688 219.351562 204.609375 220.808594 Z M 204.609375 220.808594 " fill-opacity="1" fill-rule="evenodd"/><g clip-path="url(#id3)"><path fill="#d6b26d" d="M 299.804688 201.023438 C 299.777344 200.113281 299.714844 199.117188 299.578125 198.023438 C 299.460938 197.089844 299.292969 196.09375 299.039062 195.054688 C 298.785156 194.011719 298.449219 192.917969 297.933594 191.820312 C 297.675781 191.273438 297.371094 190.722656 296.984375 190.203125 C 296.59375 189.683594 296.117188 189.183594 295.5 188.808594 C 294.886719 188.433594 294.109375 188.230469 293.34375 188.300781 C 292.578125 188.367188 291.859375 188.660156 291.222656 189.039062 C 289.941406 189.820312 288.902344 190.914062 287.949219 192.085938 C 286.953125 193.34375 286.320312 194.8125 285.785156 196.3125 C 284.742188 199.335938 284.121094 202.582031 283.5 205.921875 C 283.191406 207.589844 282.902344 209.285156 282.5625 210.988281 C 282.394531 211.835938 282.214844 212.6875 282.003906 213.527344 C 281.796875 214.367188 281.5625 215.203125 281.261719 215.980469 C 281.1875 216.171875 281.105469 216.363281 281.019531 216.542969 L 280.957031 216.679688 C 280.9375 216.71875 280.9375 216.71875 280.917969 216.746094 C 280.894531 216.789062 280.855469 216.839844 280.808594 216.890625 C 280.613281 217.101562 280.292969 217.328125 279.957031 217.523438 C 279.265625 217.921875 278.476562 218.242188 277.683594 218.53125 C 276.089844 219.101562 274.441406 219.542969 272.8125 219.945312 C 269.554688 220.738281 266.355469 221.351562 263.300781 221.898438 C 257.1875 222.980469 251.640625 223.777344 246.976562 224.398438 C 242.3125 225.019531 238.523438 225.441406 235.902344 225.679688 C 233.28125 225.925781 231.824219 225.96875 231.824219 225.964844 C 231.820312 225.96875 237.648438 225.832031 247.050781 225.082031 C 251.75 224.699219 257.339844 224.171875 263.523438 223.285156 C 266.613281 222.839844 269.855469 222.308594 273.195312 221.554688 C 274.863281 221.175781 276.554688 220.746094 278.261719 220.152344 C 279.113281 219.851562 279.96875 219.519531 280.824219 219.035156 C 281.25 218.785156 281.679688 218.511719 282.09375 218.066406 C 282.195312 217.953125 282.296875 217.828125 282.390625 217.683594 C 282.433594 217.613281 282.488281 217.519531 282.519531 217.457031 L 282.558594 217.375 C 282.683594 217.695312 282.886719 218.128906 283.191406 218.667969 C 283.523438 219.238281 283.972656 219.917969 284.617188 220.621094 C 285.265625 221.316406 286.113281 222.046875 287.246094 222.550781 C 288.367188 223.058594 289.800781 223.273438 291.238281 222.925781 C 292.683594 222.59375 294.046875 221.730469 295.175781 220.589844 C 296.3125 219.445312 297.246094 218.03125 297.988281 216.484375 C 298.730469 214.929688 299.289062 213.234375 299.664062 211.464844 C 300.425781 207.789062 300.390625 204.191406 299.804688 201.023438 Z M 293.445312 189.257812 C 294.011719 189.179688 294.570312 189.289062 295.070312 189.5625 C 295.570312 189.828125 296.003906 190.234375 296.375 190.679688 C 296.746094 191.128906 297.058594 191.621094 297.328125 192.125 C 297.867188 193.136719 298.25 194.183594 298.550781 195.1875 C 298.851562 196.191406 299.066406 197.164062 299.230469 198.078125 C 299.304688 198.492188 299.363281 198.894531 299.414062 199.285156 C 298.824219 197.050781 297.949219 195.101562 296.882812 193.585938 C 296.199219 192.605469 295.441406 191.808594 294.683594 191.222656 C 293.929688 190.632812 293.175781 190.261719 292.539062 190.054688 C 292.292969 189.972656 292.074219 189.921875 291.871094 189.882812 C 292.375 189.5625 292.90625 189.328125 293.445312 189.257812 Z M 291.003906 221.988281 C 289.789062 222.320312 288.570312 222.191406 287.5625 221.789062 C 286.546875 221.394531 285.726562 220.773438 285.082031 220.164062 C 284.433594 219.550781 283.949219 218.9375 283.570312 218.421875 C 283.152344 217.839844 282.863281 217.390625 282.675781 217.109375 C 282.75 216.945312 282.820312 216.78125 282.886719 216.617188 C 283.5625 214.820312 283.910156 213.054688 284.25 211.316406 C 284.578125 209.582031 284.851562 207.875 285.125 206.207031 C 285.679688 202.875 286.214844 199.664062 287.113281 196.757812 C 287.570312 195.320312 288.121094 193.9375 288.925781 192.84375 C 289.703125 191.804688 290.546875 190.851562 291.496094 190.152344 C 291.75 190.230469 292.042969 190.332031 292.375 190.476562 C 292.945312 190.734375 293.605469 191.132812 294.269531 191.726562 C 294.933594 192.3125 295.597656 193.09375 296.199219 194.042969 C 296.410156 194.378906 296.613281 194.738281 296.804688 195.117188 C 296.628906 194.914062 296.4375 194.71875 296.226562 194.539062 C 295.855469 194.226562 295.425781 193.960938 294.941406 193.8125 C 294.460938 193.660156 293.941406 193.636719 293.460938 193.738281 C 292.984375 193.839844 292.554688 194.050781 292.191406 194.304688 C 291.464844 194.820312 290.953125 195.472656 290.535156 196.117188 C 290.121094 196.765625 289.808594 197.425781 289.546875 198.0625 C 289.035156 199.347656 288.738281 200.550781 288.535156 201.613281 C 288.335938 202.679688 288.238281 203.605469 288.1875 204.363281 C 288.097656 205.875 288.179688 206.710938 288.253906 206.714844 C 288.339844 206.71875 288.414062 205.886719 288.640625 204.410156 C 288.757812 203.675781 288.917969 202.777344 289.171875 201.753906 C 289.425781 200.734375 289.769531 199.582031 290.304688 198.386719 C 290.574219 197.792969 290.890625 197.1875 291.285156 196.613281 C 291.675781 196.039062 292.152344 195.488281 292.730469 195.105469 C 293.304688 194.71875 293.984375 194.566406 294.628906 194.789062 C 295.273438 195.003906 295.859375 195.554688 296.324219 196.226562 C 296.792969 196.902344 297.167969 197.695312 297.46875 198.535156 C 297.773438 199.375 298.007812 200.269531 298.1875 201.195312 C 298.542969 203.042969 298.683594 205.011719 298.625 207.023438 C 298.5625 209.03125 298.308594 210.988281 297.84375 212.8125 C 297.609375 213.726562 297.324219 214.601562 296.96875 215.425781 C 296.617188 216.246094 296.199219 217.011719 295.6875 217.660156 C 295.183594 218.300781 294.570312 218.820312 293.914062 218.996094 C 293.257812 219.179688 292.585938 218.988281 292.035156 218.570312 C 291.480469 218.152344 291.039062 217.570312 290.679688 216.980469 C 290.320312 216.378906 290.039062 215.757812 289.808594 215.148438 C 289.34375 213.921875 289.070312 212.753906 288.875 211.71875 C 288.679688 210.683594 288.574219 209.78125 288.503906 209.035156 C 288.363281 207.550781 288.339844 206.714844 288.253906 206.714844 C 288.179688 206.710938 288.046875 207.542969 288.050781 209.058594 C 288.054688 209.816406 288.097656 210.746094 288.230469 211.820312 C 288.371094 212.894531 288.597656 214.113281 289.035156 215.425781 C 289.253906 216.078125 289.527344 216.757812 289.902344 217.429688 C 290.28125 218.097656 290.753906 218.777344 291.449219 219.335938 C 291.796875 219.609375 292.210938 219.847656 292.683594 219.976562 C 293.15625 220.101562 293.679688 220.113281 294.167969 219.988281 C 294.210938 219.980469 294.253906 219.960938 294.296875 219.949219 C 293.316406 220.941406 292.179688 221.679688 291.003906 221.988281 Z M 291.003906 221.988281 " fill-opacity="1" fill-rule="evenodd"/></g><g fill="#6ebddf" fill-opacity="1"><g transform="translate(141.608645, 214.746447)"><g><path d="M 17.28125 0 L 15.484375 0 L 13.640625 -2.71875 L 3.875 -2.71875 L 2.046875 0 L 0.25 0 L 8.375 -12.015625 L 9.15625 -12.015625 Z M 12.640625 -4.203125 L 8.765625 -9.9375 L 4.890625 -4.203125 Z M 12.640625 -4.203125 "/></g></g></g><g fill="#6ebddf" fill-opacity="1"><g transform="translate(159.141862, 214.746447)"><g><path d="M 11.9375 0 C 12.96875 0 13.847656 -0.363281 14.578125 -1.09375 C 15.304688 -1.820312 15.671875 -2.703125 15.671875 -3.734375 L 15.671875 -12.015625 L 14.171875 -12.015625 L 14.171875 -3.734375 C 14.171875 -3.117188 13.953125 -2.585938 13.515625 -2.140625 C 13.085938 -1.703125 12.5625 -1.484375 11.9375 -1.484375 L 4.984375 -1.484375 C 4.367188 -1.484375 3.84375 -1.703125 3.40625 -2.140625 C 2.96875 -2.585938 2.75 -3.117188 2.75 -3.734375 L 2.75 -12.015625 L 1.25 -12.015625 L 1.25 -3.734375 C 1.25 -2.703125 1.613281 -1.820312 2.34375 -1.09375 C 3.070312 -0.363281 3.953125 0 4.984375 0 Z M 11.9375 0 "/></g></g></g><g fill="#6ebddf" fill-opacity="1"><g transform="translate(176.063553, 214.746447)"><g><path d="M 18.390625 0 L 16.90625 0 L 16.90625 -8.96875 L 10.421875 0 L 9.65625 0 L 3.171875 -8.96875 L 3.171875 0 L 1.671875 0 L 1.671875 -12.015625 L 2.796875 -12.015625 L 10.03125 -2.015625 L 17.265625 -12.015625 L 18.390625 -12.015625 Z M 18.390625 0 "/></g></g></g><g fill="#045217" fill-opacity="1"><g transform="translate(92.51898, 225.617741)"><g><path d="M 1.875 0 L 0.875 0 L 0.875 -6.296875 L 6.875 -6.296875 C 7.289062 -6.296875 7.644531 -6.144531 7.9375 -5.84375 C 8.226562 -5.550781 8.375 -5.203125 8.375 -4.796875 L 8.375 -3.765625 C 8.375 -3.359375 8.226562 -3.003906 7.9375 -2.703125 C 7.644531 -2.410156 7.289062 -2.265625 6.875 -2.265625 L 1.875 -2.265625 Z M 6.875 -3.265625 C 7.007812 -3.265625 7.125 -3.3125 7.21875 -3.40625 C 7.320312 -3.507812 7.375 -3.628906 7.375 -3.765625 L 7.375 -4.796875 C 7.375 -4.929688 7.320312 -5.046875 7.21875 -5.140625 C 7.125 -5.242188 7.007812 -5.296875 6.875 -5.296875 L 1.875 -5.296875 L 1.875 -3.265625 Z M 6.875 -3.265625 "/></g></g><g transform="translate(101.553624, 225.617741)"><g><path d="M 9.171875 0 L 7.96875 0 L 7.046875 -1.359375 L 2.265625 -1.359375 L 1.34375 0 L 0.125 0 L 4.390625 -6.296875 L 4.921875 -6.296875 Z M 6.359375 -2.359375 L 4.65625 -4.90625 L 2.9375 -2.359375 Z M 6.359375 -2.359375 "/></g></g><g transform="translate(110.860318, 225.617741)"><g><path d="M 8.375 0 L 7.375 0 L 7.375 -1.765625 C 7.375 -1.910156 7.320312 -2.03125 7.21875 -2.125 C 7.125 -2.21875 7.007812 -2.265625 6.875 -2.265625 L 1.875 -2.265625 L 1.875 0 L 0.875 0 L 0.875 -6.296875 L 6.875 -6.296875 C 7.289062 -6.296875 7.644531 -6.144531 7.9375 -5.84375 C 8.226562 -5.550781 8.375 -5.203125 8.375 -4.796875 L 8.375 -3.765625 C 8.375 -3.378906 8.242188 -3.046875 7.984375 -2.765625 C 8.242188 -2.484375 8.375 -2.148438 8.375 -1.765625 Z M 6.875 -3.265625 C 7.007812 -3.265625 7.125 -3.3125 7.21875 -3.40625 C 7.320312 -3.507812 7.375 -3.628906 7.375 -3.765625 L 7.375 -4.796875 C 7.375 -4.929688 7.320312 -5.046875 7.21875 -5.140625 C 7.125 -5.242188 7.007812 -5.296875 6.875 -5.296875 L 1.875 -5.296875 L 1.875 -3.265625 Z M 6.875 -3.265625 "/></g></g><g transform="translate(119.894962, 225.617741)"><g><path d="M 6.15625 0 C 6.707031 0 7.175781 -0.191406 7.5625 -0.578125 C 7.957031 -0.972656 8.15625 -1.445312 8.15625 -2 L 7.15625 -2 C 7.15625 -1.71875 7.054688 -1.476562 6.859375 -1.28125 C 6.660156 -1.09375 6.425781 -1 6.15625 -1 L 2.65625 -1 C 2.375 -1 2.132812 -1.09375 1.9375 -1.28125 C 1.75 -1.476562 1.65625 -1.71875 1.65625 -2 L 1.65625 -4.296875 C 1.65625 -4.566406 1.75 -4.800781 1.9375 -5 C 2.132812 -5.195312 2.375 -5.296875 2.65625 -5.296875 L 6.15625 -5.296875 C 6.425781 -5.296875 6.660156 -5.195312 6.859375 -5 C 7.054688 -4.800781 7.15625 -4.566406 7.15625 -4.296875 L 8.15625 -4.296875 C 8.15625 -4.847656 7.957031 -5.316406 7.5625 -5.703125 C 7.175781 -6.097656 6.707031 -6.296875 6.15625 -6.296875 L 2.65625 -6.296875 C 2.101562 -6.296875 1.628906 -6.097656 1.234375 -5.703125 C 0.847656 -5.316406 0.65625 -4.847656 0.65625 -4.296875 L 0.65625 -2 C 0.65625 -1.445312 0.847656 -0.972656 1.234375 -0.578125 C 1.628906 -0.191406 2.101562 0 2.65625 0 Z M 6.15625 0 "/></g></g><g transform="translate(128.710213, 225.617741)"><g/></g><g transform="translate(130.939256, 225.617741)"><g><path d="M 9.171875 0 L 7.96875 0 L 7.046875 -1.359375 L 2.265625 -1.359375 L 1.34375 0 L 0.125 0 L 4.390625 -6.296875 L 4.921875 -6.296875 Z M 6.359375 -2.359375 L 4.65625 -4.90625 L 2.9375 -2.359375 Z M 6.359375 -2.359375 "/></g></g><g transform="translate(140.245949, 225.617741)"><g><path d="M 6.15625 0 C 6.707031 0 7.175781 -0.191406 7.5625 -0.578125 C 7.957031 -0.972656 8.15625 -1.445312 8.15625 -2 L 8.15625 -6.296875 L 7.15625 -6.296875 L 7.15625 -2 C 7.15625 -1.71875 7.054688 -1.476562 6.859375 -1.28125 C 6.660156 -1.09375 6.425781 -1 6.15625 -1 L 2.65625 -1 C 2.375 -1 2.132812 -1.09375 1.9375 -1.28125 C 1.75 -1.476562 1.65625 -1.71875 1.65625 -2 L 1.65625 -6.296875 L 0.65625 -6.296875 L 0.65625 -2 C 0.65625 -1.445312 0.847656 -0.972656 1.234375 -0.578125 C 1.628906 -0.191406 2.101562 0 2.65625 0 Z M 6.15625 0 "/></g></g><g transform="translate(149.061199, 225.617741)"><g><path d="M 3.984375 0 L 2.984375 0 L 2.984375 -5.296875 L 0.125 -5.296875 L 0.125 -6.296875 L 6.828125 -6.296875 L 6.828125 -5.296875 L 3.984375 -5.296875 Z M 3.984375 0 "/></g></g><g transform="translate(156.024765, 225.617741)"><g><path d="M 6.15625 0 C 6.707031 0 7.175781 -0.191406 7.5625 -0.578125 C 7.957031 -0.972656 8.15625 -1.445312 8.15625 -2 L 8.15625 -4.296875 C 8.15625 -4.847656 7.957031 -5.316406 7.5625 -5.703125 C 7.175781 -6.097656 6.707031 -6.296875 6.15625 -6.296875 L 2.65625 -6.296875 C 2.101562 -6.296875 1.628906 -6.097656 1.234375 -5.703125 C 0.847656 -5.316406 0.65625 -4.847656 0.65625 -4.296875 L 0.65625 -2 C 0.65625 -1.445312 0.847656 -0.972656 1.234375 -0.578125 C 1.628906 -0.191406 2.101562 0 2.65625 0 Z M 6.15625 -1 L 2.65625 -1 C 2.375 -1 2.132812 -1.09375 1.9375 -1.28125 C 1.75 -1.476562 1.65625 -1.71875 1.65625 -2 L 1.65625 -4.296875 C 1.65625 -4.566406 1.75 -4.800781 1.9375 -5 C 2.132812 -5.195312 2.375 -5.296875 2.65625 -5.296875 L 6.15625 -5.296875 C 6.425781 -5.296875 6.660156 -5.195312 6.859375 -5 C 7.054688 -4.800781 7.15625 -4.566406 7.15625 -4.296875 L 7.15625 -2 C 7.15625 -1.71875 7.054688 -1.476562 6.859375 -1.28125 C 6.660156 -1.09375 6.425781 -1 6.15625 -1 Z M 6.15625 -1 "/></g></g></g></svg>