<svg xmlns="http://www.w3.org/2000/svg" xmlns:xlink="http://www.w3.org/1999/xlink" width="500" zoomAndPan="magnify" viewBox="0 0 375 374.999991" height="500" preserveAspectRatio="xMidYMid meet" version="1.0"><defs><g/><clipPath id="id1"><path d="M 167.03125 140.214844 L 319 140.214844 L 319 175 L 167.03125 175 Z M 167.03125 140.214844 " clip-rule="nonzero"/></clipPath><clipPath id="id2"><path d="M 230 167 L 304 167 L 304 206.964844 L 230 206.964844 Z M 230 167 " clip-rule="nonzero"/></clipPath></defs><g clip-path="url(#id1)"><path fill="#d6b26d" d="M 182.109375 163.382812 C 183.769531 162.929688 185.550781 162.542969 187.433594 162.160156 L 190.335938 161.5625 C 191.324219 161.347656 192.335938 161.132812 193.378906 160.832031 C 195.449219 160.238281 197.558594 159.320312 199.507812 158.003906 C 200.480469 157.351562 201.414062 156.605469 202.3125 155.824219 C 203.210938 155.039062 204.082031 154.214844 204.960938 153.40625 C 206.714844 151.777344 208.554688 150.234375 210.65625 148.96875 C 212.746094 147.699219 215.082031 146.6875 217.527344 145.90625 C 219.964844 145.160156 222.605469 144.691406 225.304688 144.316406 C 230.71875 143.585938 236.417969 143.246094 242.25 143.058594 C 248.085938 142.886719 253.800781 142.878906 259.292969 143.074219 C 264.78125 143.289062 270.070312 143.734375 275.019531 144.574219 C 277.496094 144.992188 279.882812 145.515625 282.148438 146.191406 C 284.410156 146.863281 286.550781 147.6875 288.464844 148.746094 C 289.417969 149.273438 290.3125 149.859375 291.121094 150.519531 L 291.746094 151.039062 C 291.960938 151.210938 292.175781 151.382812 292.390625 151.550781 C 292.820312 151.886719 293.257812 152.210938 293.691406 152.519531 C 295.441406 153.757812 297.230469 154.78125 299.003906 155.605469 C 302.550781 157.265625 305.976562 158.117188 308.917969 158.910156 C 310.390625 159.308594 311.75 159.703125 312.949219 160.199219 C 314.148438 160.6875 315.175781 161.300781 315.957031 162.027344 C 316.734375 162.753906 317.257812 163.566406 317.605469 164.3125 C 317.949219 165.0625 318.140625 165.738281 318.265625 166.292969 C 318.503906 167.398438 318.523438 168 318.53125 167.996094 C 318.523438 168 318.503906 167.402344 318.292969 166.285156 C 318.179688 165.730469 318.007812 165.042969 317.683594 164.277344 C 317.359375 163.511719 316.859375 162.664062 316.085938 161.890625 C 315.320312 161.113281 314.285156 160.441406 313.085938 159.882812 C 311.886719 159.324219 310.527344 158.863281 309.070312 158.390625 C 306.15625 157.460938 302.824219 156.449219 299.464844 154.671875 C 297.785156 153.789062 296.105469 152.726562 294.480469 151.457031 C 294.074219 151.140625 293.671875 150.8125 293.273438 150.472656 C 293.074219 150.300781 292.875 150.125 292.675781 149.949219 L 292.074219 149.402344 C 291.21875 148.640625 290.273438 147.960938 289.273438 147.351562 C 287.269531 146.132812 285.050781 145.183594 282.71875 144.390625 C 280.386719 143.605469 277.941406 142.980469 275.410156 142.46875 C 270.355469 141.449219 264.980469 140.867188 259.410156 140.558594 C 253.835938 140.269531 248.074219 140.230469 242.167969 140.40625 C 236.265625 140.59375 230.5 140.984375 224.945312 141.828125 C 223.554688 142.039062 222.179688 142.285156 220.824219 142.582031 C 219.464844 142.882812 218.121094 143.226562 216.800781 143.671875 C 215.488281 144.121094 214.238281 144.628906 213.019531 145.210938 C 211.800781 145.792969 210.628906 146.441406 209.523438 147.164062 C 208.414062 147.882812 207.371094 148.667969 206.398438 149.496094 C 205.429688 150.324219 204.523438 151.1875 203.664062 152.046875 C 201.941406 153.761719 200.351562 155.40625 198.585938 156.691406 C 196.832031 157.984375 194.925781 158.921875 192.984375 159.574219 C 192.023438 159.902344 191.03125 160.164062 190.0625 160.417969 L 187.203125 161.148438 C 185.335938 161.625 183.550781 162.101562 181.890625 162.640625 C 180.226562 163.179688 178.683594 163.78125 177.292969 164.445312 C 174.5 165.765625 172.347656 167.390625 170.839844 168.941406 C 169.324219 170.488281 168.414062 171.914062 167.84375 172.890625 C 167.277344 173.875 167.039062 174.421875 167.035156 174.417969 C 167.039062 174.421875 167.28125 173.875 167.867188 172.90625 C 168.460938 171.945312 169.414062 170.550781 170.972656 169.078125 C 171.753906 168.34375 172.683594 167.59375 173.777344 166.890625 C 174.867188 166.183594 176.117188 165.523438 177.515625 164.933594 C 178.910156 164.347656 180.449219 163.832031 182.109375 163.382812 Z M 182.109375 163.382812 " fill-opacity="1" fill-rule="evenodd"/></g><path fill="#d6b26d" d="M 237.109375 165.097656 C 238.351562 164.878906 239.605469 164.671875 240.867188 164.472656 C 245.914062 163.671875 250.863281 163.003906 255.652344 162.441406 C 260.441406 161.875 265.070312 161.417969 269.488281 161.070312 C 278.324219 160.367188 286.308594 160.109375 293.011719 160.253906 C 296.363281 160.324219 299.394531 160.488281 302.050781 160.71875 C 304.703125 160.945312 306.980469 161.238281 308.835938 161.53125 C 310.691406 161.824219 312.117188 162.117188 313.082031 162.332031 C 314.046875 162.550781 314.550781 162.683594 314.550781 162.683594 C 314.550781 162.683594 314.046875 162.550781 313.085938 162.320312 C 312.125 162.09375 310.699219 161.773438 308.851562 161.4375 C 307.003906 161.101562 304.730469 160.75 302.078125 160.449219 C 299.421875 160.148438 296.390625 159.894531 293.03125 159.734375 C 286.3125 159.40625 278.292969 159.453125 269.414062 160 C 265.808594 160.222656 262.050781 160.527344 258.191406 160.914062 C 258.273438 160.585938 258.390625 160.164062 258.539062 159.65625 C 258.734375 159 258.988281 158.199219 259.328125 157.285156 C 259.667969 156.371094 260.089844 155.347656 260.636719 154.257812 C 261.183594 153.171875 261.855469 152.019531 262.738281 150.917969 C 263.613281 149.824219 264.710938 148.777344 266.070312 148.070312 C 266.746094 147.71875 267.484375 147.453125 268.261719 147.304688 C 268.652344 147.226562 269.042969 147.1875 269.472656 147.152344 C 269.894531 147.117188 270.324219 147.09375 270.753906 147.078125 C 272.480469 147.023438 274.273438 147.136719 276.089844 147.40625 C 279.722656 147.957031 283.09375 149.066406 286.058594 150.304688 C 286.429688 150.460938 286.792969 150.617188 287.152344 150.777344 C 287.515625 150.9375 287.851562 151.089844 288.179688 151.265625 C 288.839844 151.613281 289.464844 152.003906 290.058594 152.398438 C 291.25 153.195312 292.339844 153.992188 293.367188 154.679688 C 294.390625 155.375 295.347656 155.960938 296.222656 156.414062 C 297.089844 156.875 297.875 157.207031 298.523438 157.4375 C 299.171875 157.671875 299.6875 157.808594 300.039062 157.894531 C 300.394531 157.980469 300.578125 158.019531 300.578125 158.019531 C 300.578125 158.019531 300.390625 157.980469 300.042969 157.882812 C 299.699219 157.78125 299.1875 157.617188 298.558594 157.347656 C 297.925781 157.074219 297.179688 156.695312 296.355469 156.179688 C 295.53125 155.667969 294.632812 155.019531 293.671875 154.257812 C 292.707031 153.503906 291.683594 152.632812 290.523438 151.742188 C 289.941406 151.296875 289.324219 150.851562 288.644531 150.441406 C 288.304688 150.234375 287.9375 150.042969 287.585938 149.863281 C 287.230469 149.683594 286.867188 149.503906 286.496094 149.324219 C 285.011719 148.617188 283.410156 147.953125 281.703125 147.394531 C 279.996094 146.832031 278.179688 146.375 276.285156 146.089844 C 274.390625 145.808594 272.507812 145.714844 270.695312 145.820312 C 270.242188 145.847656 269.796875 145.886719 269.355469 145.9375 C 268.921875 145.984375 268.457031 146.046875 268.015625 146.152344 C 267.128906 146.359375 266.296875 146.699219 265.550781 147.132812 C 264.054688 148.011719 262.941406 149.226562 262.09375 150.4375 C 261.246094 151.65625 260.640625 152.894531 260.164062 154.042969 C 259.691406 155.191406 259.34375 156.257812 259.074219 157.199219 C 258.800781 158.140625 258.601562 158.960938 258.445312 159.632812 C 258.328125 160.152344 258.234375 160.582031 258.164062 160.917969 C 257.292969 161.003906 256.421875 161.089844 255.539062 161.1875 C 255.546875 161.175781 255.558594 161.160156 255.570312 161.148438 C 255.886719 160.675781 256.132812 160.210938 256.375 159.742188 C 256.609375 159.269531 256.828125 158.796875 257.03125 158.324219 C 257.445312 157.375 257.808594 156.417969 258.140625 155.457031 C 258.46875 154.496094 258.761719 153.53125 259.007812 152.554688 C 259.25 151.578125 259.449219 150.59375 259.554688 149.585938 C 259.605469 149.078125 259.628906 148.566406 259.597656 148.039062 C 259.582031 147.777344 259.546875 147.507812 259.488281 147.234375 C 259.457031 147.097656 259.421875 146.957031 259.371094 146.816406 C 259.347656 146.746094 259.316406 146.675781 259.285156 146.605469 C 259.25 146.523438 259.199219 146.433594 259.148438 146.359375 C 258.941406 146.058594 258.695312 145.867188 258.460938 145.710938 C 258.222656 145.554688 257.988281 145.433594 257.75 145.332031 C 257.273438 145.125 256.804688 144.976562 256.335938 144.851562 C 255.398438 144.601562 254.472656 144.441406 253.558594 144.308594 C 252.640625 144.175781 251.734375 144.082031 250.84375 144.003906 C 247.265625 143.710938 243.867188 143.691406 240.691406 143.757812 C 237.519531 143.828125 234.566406 144.007812 231.878906 144.242188 C 226.507812 144.714844 222.1875 145.433594 219.265625 146.171875 C 217.804688 146.539062 216.691406 146.914062 215.960938 147.214844 C 215.226562 147.515625 214.867188 147.730469 214.863281 147.726562 C 214.867188 147.730469 215.226562 147.515625 215.964844 147.230469 C 216.703125 146.941406 217.820312 146.589844 219.289062 146.265625 C 222.226562 145.609375 226.554688 145.046875 231.917969 144.761719 C 234.601562 144.617188 237.542969 144.535156 240.699219 144.558594 C 243.855469 144.589844 247.230469 144.699219 250.742188 145.066406 C 251.617188 145.164062 252.503906 145.273438 253.386719 145.417969 C 254.273438 145.566406 255.164062 145.738281 256.023438 145.984375 C 256.453125 146.105469 256.875 146.25 257.261719 146.425781 C 257.453125 146.511719 257.636719 146.609375 257.792969 146.71875 C 257.949219 146.820312 258.078125 146.941406 258.136719 147.035156 C 258.152344 147.058594 258.160156 147.074219 258.171875 147.097656 C 258.1875 147.136719 258.203125 147.179688 258.21875 147.222656 C 258.246094 147.304688 258.269531 147.398438 258.289062 147.496094 C 258.328125 147.6875 258.351562 147.894531 258.363281 148.109375 C 258.386719 148.542969 258.359375 148.996094 258.308594 149.453125 C 258.203125 150.371094 258.003906 151.304688 257.761719 152.234375 C 257.519531 153.167969 257.230469 154.101562 256.90625 155.03125 C 256.582031 155.960938 256.222656 156.882812 255.824219 157.796875 C 255.625 158.25 255.414062 158.703125 255.195312 159.144531 C 254.972656 159.582031 254.734375 160.019531 254.476562 160.398438 C 254.460938 160.417969 254.480469 160.40625 254.464844 160.40625 L 253.789062 160.292969 C 253.28125 160.210938 252.777344 160.128906 252.273438 160.054688 C 251.265625 159.902344 250.257812 159.769531 249.261719 159.648438 C 247.265625 159.410156 245.296875 159.214844 243.359375 159.054688 C 239.488281 158.738281 235.746094 158.546875 232.183594 158.4375 C 225.054688 158.21875 218.632812 158.300781 213.246094 158.527344 C 207.859375 158.753906 203.511719 159.136719 200.527344 159.550781 C 199.035156 159.757812 197.882812 159.976562 197.113281 160.15625 C 196.339844 160.335938 195.945312 160.46875 195.945312 160.46875 C 195.945312 160.46875 196.339844 160.335938 197.113281 160.167969 C 197.890625 160 199.042969 159.8125 200.539062 159.648438 C 203.53125 159.3125 207.882812 159.085938 213.257812 159.046875 C 218.636719 159.003906 225.042969 159.128906 232.136719 159.503906 C 235.6875 159.695312 239.40625 159.949219 243.25 160.308594 C 245.171875 160.492188 247.125 160.699219 249.097656 160.949219 C 250.085938 161.074219 251.078125 161.210938 252.074219 161.363281 C 252.34375 161.40625 252.613281 161.449219 252.882812 161.492188 C 248.898438 161.957031 244.816406 162.503906 240.664062 163.164062 C 239.394531 163.363281 238.136719 163.574219 236.886719 163.792969 C 235.632812 164.019531 234.40625 164.238281 233.148438 164.527344 C 231.898438 164.824219 230.675781 165.242188 229.523438 165.796875 C 228.367188 166.351562 227.296875 167.054688 226.328125 167.835938 C 225.355469 168.617188 224.480469 169.464844 223.628906 170.28125 C 222.777344 171.101562 221.9375 171.886719 221.046875 172.59375 C 219.28125 174.007812 217.3125 175.050781 215.265625 175.769531 C 213.214844 176.496094 211.117188 176.9375 209.058594 177.238281 C 207 177.535156 204.976562 177.691406 203.011719 177.773438 C 201.046875 177.859375 199.15625 177.855469 197.320312 177.839844 L 192.050781 177.84375 C 188.699219 177.828125 185.664062 177.714844 183.03125 177.355469 C 180.40625 176.996094 178.144531 176.394531 176.558594 175.390625 C 175.769531 174.894531 175.171875 174.289062 174.8125 173.667969 C 174.441406 173.046875 174.304688 172.433594 174.257812 171.945312 C 174.210938 171.453125 174.246094 171.078125 174.273438 170.824219 C 174.296875 170.636719 174.320312 170.519531 174.328125 170.472656 C 174.320312 170.519531 174.296875 170.636719 174.273438 170.824219 C 174.242188 171.074219 174.203125 171.453125 174.242188 171.949219 C 174.285156 172.4375 174.414062 173.054688 174.773438 173.6875 C 175.128906 174.324219 175.722656 174.949219 176.507812 175.472656 C 178.089844 176.523438 180.355469 177.1875 182.988281 177.621094 C 185.632812 178.054688 188.679688 178.253906 192.039062 178.363281 L 197.308594 178.496094 C 199.132812 178.5625 201.054688 178.617188 203.035156 178.578125 C 205.019531 178.539062 207.074219 178.429688 209.183594 178.171875 C 211.292969 177.90625 213.457031 177.5 215.613281 176.777344 C 216.6875 176.417969 217.757812 175.976562 218.792969 175.433594 C 219.828125 174.894531 220.828125 174.246094 221.773438 173.519531 C 223.675781 172.066406 225.277344 170.269531 227.113281 168.820312 C 228.027344 168.09375 229.015625 167.460938 230.078125 166.957031 C 231.140625 166.453125 232.277344 166.078125 233.453125 165.800781 C 234.625 165.535156 235.875 165.316406 237.109375 165.097656 Z M 237.109375 165.097656 " fill-opacity="1" fill-rule="evenodd"/><path fill="#d6b26d" d="M 174.320312 170.472656 C 174.324219 170.453125 174.324219 170.445312 174.324219 170.445312 C 174.324219 170.445312 174.324219 170.453125 174.320312 170.472656 Z M 174.320312 170.472656 " fill-opacity="1" fill-rule="evenodd"/><path fill="#d6b26d" d="M 230.554688 199.867188 C 230.519531 199.878906 230.496094 199.886719 230.496094 199.886719 C 230.496094 199.886719 230.515625 199.878906 230.554688 199.867188 Z M 230.554688 199.867188 " fill-opacity="1" fill-rule="evenodd"/><g clip-path="url(#id2)"><path fill="#d6b26d" d="M 274.875 192.570312 C 275.324219 192.484375 275.78125 192.390625 276.210938 192.292969 C 276.320312 192.265625 276.414062 192.25 276.523438 192.230469 L 276.847656 192.167969 L 277.5 192.050781 L 280.089844 191.597656 C 281.796875 191.296875 283.46875 190.988281 285.089844 190.644531 C 288.332031 189.953125 291.394531 189.140625 294.121094 187.992188 C 295.480469 187.414062 296.757812 186.75 297.882812 185.941406 C 298.4375 185.539062 298.96875 185.097656 299.410156 184.597656 C 299.859375 184.105469 300.242188 183.582031 300.578125 183.050781 C 301.25 181.980469 301.71875 180.878906 302.078125 179.820312 C 302.433594 178.757812 302.679688 177.734375 302.871094 176.769531 C 303.242188 174.84375 303.390625 173.164062 303.492188 171.796875 C 303.585938 170.429688 303.625 169.367188 303.652344 168.648438 L 303.691406 167.554688 L 303.640625 168.648438 C 303.601562 169.363281 303.542969 170.425781 303.410156 171.789062 C 303.273438 173.152344 303.074219 174.820312 302.644531 176.722656 C 302.425781 177.671875 302.148438 178.675781 301.761719 179.707031 C 301.375 180.738281 300.878906 181.796875 300.203125 182.800781 C 299.859375 183.304688 299.476562 183.792969 299.035156 184.246094 C 298.605469 184.699219 298.097656 185.09375 297.550781 185.46875 C 296.453125 186.207031 295.195312 186.808594 293.855469 187.332031 C 291.160156 188.367188 288.128906 189.085938 284.902344 189.6875 C 283.289062 189.988281 281.621094 190.257812 279.910156 190.523438 L 277.3125 190.925781 L 276.65625 191.03125 L 276.324219 191.085938 C 276.210938 191.105469 276.082031 191.128906 275.976562 191.152344 C 275.53125 191.242188 275.109375 191.324219 274.667969 191.398438 C 272.910156 191.699219 271.097656 191.894531 269.242188 192.039062 C 268.316406 192.109375 267.378906 192.167969 266.433594 192.21875 L 265.007812 192.296875 L 264.417969 192.324219 C 264.414062 192.324219 264.414062 192.324219 264.414062 192.324219 L 264.414062 192.320312 L 264.542969 191.625 C 264.628906 191.113281 264.707031 190.597656 264.777344 190.078125 C 264.914062 189.039062 265.015625 187.992188 265.074219 186.929688 C 265.195312 184.789062 265.15625 182.65625 264.859375 180.5625 C 264.710938 179.519531 264.492188 178.484375 264.179688 177.476562 C 263.871094 176.472656 263.464844 175.492188 262.917969 174.585938 C 262.375 173.679688 261.6875 172.847656 260.859375 172.1875 C 260.035156 171.523438 259.066406 171.042969 258.082031 170.773438 C 257.125 170.476562 256.070312 170.34375 255.058594 170.449219 C 254.042969 170.550781 253.078125 170.878906 252.222656 171.347656 C 251.363281 171.8125 250.613281 172.40625 249.949219 173.050781 C 249.28125 173.695312 248.699219 174.394531 248.175781 175.109375 C 247.128906 176.546875 246.308594 178.050781 245.605469 179.535156 C 244.210938 182.515625 243.277344 185.429688 242.582031 188.121094 C 242.492188 188.472656 242.429688 188.789062 242.339844 189.113281 C 242.25 189.433594 242.15625 189.746094 242.050781 190.054688 C 241.84375 190.667969 241.597656 191.25 241.320312 191.796875 C 240.765625 192.894531 240.082031 193.847656 239.351562 194.652344 C 237.882812 196.269531 236.269531 197.308594 234.921875 198.046875 C 233.5625 198.777344 232.4375 199.210938 231.671875 199.492188 C 231.070312 199.707031 230.691406 199.828125 230.554688 199.871094 C 230.691406 199.828125 231.070312 199.714844 231.675781 199.507812 C 232.445312 199.238281 233.578125 198.828125 234.964844 198.132812 C 236.339844 197.429688 237.996094 196.433594 239.546875 194.835938 C 240.316406 194.039062 241.050781 193.085938 241.660156 191.980469 C 241.964844 191.425781 242.238281 190.832031 242.476562 190.207031 C 242.59375 189.894531 242.703125 189.574219 242.804688 189.246094 C 242.90625 188.925781 242.992188 188.574219 243.082031 188.257812 C 243.859375 185.621094 244.878906 182.765625 246.328125 179.890625 C 247.054688 178.457031 247.898438 177.019531 248.929688 175.675781 C 249.445312 175.007812 250.011719 174.363281 250.640625 173.785156 C 251.269531 173.203125 251.960938 172.683594 252.722656 172.292969 C 252.925781 172.1875 253.136719 172.09375 253.347656 172.007812 C 253.433594 172.042969 253.535156 172.078125 253.664062 172.125 C 254.03125 172.253906 254.566406 172.433594 255.21875 172.742188 C 255.867188 173.046875 256.628906 173.488281 257.414062 174.128906 C 258.195312 174.769531 259 175.605469 259.726562 176.648438 C 261.191406 178.730469 262.332031 181.652344 262.691406 185.027344 C 262.871094 186.710938 262.863281 188.503906 262.636719 190.335938 C 262.40625 192.167969 261.957031 194.039062 261.246094 195.851562 C 260.53125 197.664062 259.589844 199.332031 258.457031 200.757812 C 257.324219 202.179688 256 203.355469 254.574219 204.167969 C 253.152344 204.984375 251.632812 205.421875 250.191406 205.476562 C 248.746094 205.53125 247.398438 205.222656 246.261719 204.71875 C 245.117188 204.214844 244.179688 203.53125 243.425781 202.851562 C 242.671875 202.171875 242.09375 201.492188 241.648438 200.917969 C 240.757812 199.761719 240.34375 199.039062 240.222656 199.097656 C 240.167969 199.125 240.199219 199.335938 240.332031 199.714844 C 240.464844 200.09375 240.695312 200.636719 241.074219 201.300781 C 241.453125 201.964844 241.980469 202.75 242.730469 203.554688 C 243.480469 204.363281 244.457031 205.195312 245.71875 205.847656 C 246.976562 206.5 248.523438 206.945312 250.21875 206.945312 C 251.910156 206.953125 253.714844 206.492188 255.367188 205.597656 C 257.027344 204.707031 258.539062 203.40625 259.808594 201.847656 C 261.082031 200.289062 262.125 198.46875 262.898438 196.503906 C 263.265625 195.566406 263.558594 194.617188 263.796875 193.667969 L 265.078125 193.597656 L 266.511719 193.511719 C 267.460938 193.453125 268.410156 193.382812 269.347656 193.300781 C 271.222656 193.132812 273.074219 192.90625 274.875 192.570312 Z M 260.734375 175.898438 C 259.871094 174.808594 258.921875 173.953125 258.003906 173.335938 C 257.085938 172.714844 256.207031 172.324219 255.46875 172.097656 C 254.867188 171.910156 254.363281 171.828125 253.980469 171.792969 C 254.363281 171.683594 254.757812 171.605469 255.160156 171.574219 C 256.019531 171.503906 256.878906 171.621094 257.746094 171.902344 C 258.605469 172.15625 259.398438 172.566406 260.089844 173.136719 C 260.78125 173.707031 261.363281 174.425781 261.835938 175.230469 C 262.777344 176.847656 263.285156 178.773438 263.558594 180.746094 C 263.605469 181.09375 263.636719 181.441406 263.671875 181.792969 C 262.996094 179.460938 261.960938 177.4375 260.734375 175.898438 Z M 260.734375 175.898438 " fill-opacity="1" fill-rule="evenodd"/></g><path fill="#d6b26d" d="M 247.097656 193.195312 C 247.238281 194.300781 247.488281 195.5625 248.007812 196.890625 C 248.269531 197.550781 248.601562 198.226562 249.046875 198.878906 C 249.492188 199.53125 250.058594 200.164062 250.800781 200.640625 C 251.539062 201.125 252.484375 201.402344 253.441406 201.316406 C 254.402344 201.238281 255.320312 200.8125 256.09375 200.230469 C 256.871094 199.644531 257.53125 198.898438 258.097656 198.085938 C 258.664062 197.265625 259.140625 196.371094 259.542969 195.429688 C 260.339844 193.546875 260.84375 191.476562 261.0625 189.328125 C 261.273438 187.183594 261.199219 185.054688 260.792969 183.050781 C 260.585938 182.046875 260.300781 181.074219 259.90625 180.160156 C 259.511719 179.25 259.015625 178.390625 258.371094 177.660156 C 257.730469 176.933594 256.917969 176.332031 255.992188 176.066406 C 255.070312 175.789062 254.085938 175.875 253.269531 176.199219 C 252.445312 176.519531 251.765625 177.027344 251.199219 177.574219 C 250.632812 178.125 250.171875 178.722656 249.785156 179.316406 C 249.007812 180.515625 248.511719 181.699219 248.152344 182.753906 C 247.796875 183.8125 247.585938 184.75 247.449219 185.523438 C 247.1875 187.066406 247.199219 187.933594 247.25 187.9375 C 247.320312 187.945312 247.425781 187.089844 247.785156 185.59375 C 247.972656 184.847656 248.226562 183.9375 248.617188 182.921875 C 249.011719 181.910156 249.535156 180.78125 250.304688 179.667969 C 250.6875 179.113281 251.136719 178.5625 251.667969 178.070312 C 252.199219 177.582031 252.820312 177.144531 253.527344 176.886719 C 254.226562 176.625 255.019531 176.578125 255.765625 176.8125 C 256.515625 177.039062 257.195312 177.546875 257.757812 178.195312 C 258.320312 178.851562 258.769531 179.640625 259.128906 180.492188 C 259.488281 181.347656 259.753906 182.265625 259.941406 183.222656 C 260.316406 185.128906 260.386719 187.179688 260.183594 189.242188 C 259.972656 191.308594 259.492188 193.300781 258.746094 195.097656 C 258.371094 195.992188 257.925781 196.839844 257.402344 197.605469 C 256.882812 198.371094 256.28125 199.054688 255.601562 199.582031 C 254.921875 200.109375 254.152344 200.46875 253.375 200.542969 C 252.597656 200.621094 251.832031 200.417969 251.195312 200.019531 C 250.554688 199.628906 250.03125 199.078125 249.609375 198.488281 C 249.1875 197.902344 248.859375 197.273438 248.59375 196.652344 C 248.0625 195.40625 247.773438 194.195312 247.589844 193.125 C 247.410156 192.054688 247.339844 191.113281 247.308594 190.34375 C 247.253906 188.804688 247.320312 187.945312 247.25 187.9375 C 247.199219 187.933594 247.015625 188.78125 246.964844 190.34375 C 246.9375 191.125 246.960938 192.085938 247.097656 193.195312 Z M 247.097656 193.195312 " fill-opacity="1" fill-rule="evenodd"/><path fill="#d6b26d" d="M 319.558594 178.144531 C 319.539062 177.449219 319.488281 176.691406 319.386719 175.863281 C 319.296875 175.152344 319.167969 174.394531 318.976562 173.601562 C 318.78125 172.808594 318.527344 171.976562 318.136719 171.140625 C 317.9375 170.726562 317.703125 170.308594 317.410156 169.910156 C 317.113281 169.515625 316.75 169.136719 316.28125 168.851562 C 315.816406 168.566406 315.222656 168.410156 314.640625 168.464844 C 314.058594 168.515625 313.511719 168.738281 313.023438 169.027344 C 312.050781 169.621094 311.261719 170.453125 310.535156 171.34375 C 309.777344 172.300781 309.292969 173.417969 308.886719 174.558594 C 308.089844 176.859375 307.617188 179.328125 307.148438 181.867188 C 306.914062 183.140625 306.691406 184.429688 306.433594 185.722656 C 306.304688 186.371094 306.167969 187.015625 306.007812 187.65625 C 305.851562 188.292969 305.671875 188.929688 305.441406 189.519531 C 305.386719 189.667969 305.324219 189.8125 305.261719 189.953125 L 305.210938 190.054688 C 305.195312 190.082031 305.195312 190.085938 305.183594 190.105469 C 305.164062 190.136719 305.132812 190.175781 305.097656 190.214844 C 304.949219 190.375 304.707031 190.546875 304.449219 190.695312 C 303.925781 190.996094 303.324219 191.242188 302.71875 191.460938 C 301.503906 191.894531 300.25 192.234375 299.011719 192.539062 C 296.53125 193.144531 294.09375 193.605469 291.769531 194.023438 C 287.117188 194.847656 282.894531 195.453125 279.347656 195.925781 C 275.792969 196.398438 272.910156 196.71875 270.917969 196.902344 C 268.921875 197.089844 267.8125 197.121094 267.8125 197.117188 C 267.808594 197.121094 272.246094 197.015625 279.402344 196.445312 C 282.976562 196.152344 287.234375 195.753906 291.941406 195.082031 C 294.292969 194.738281 296.761719 194.335938 299.300781 193.765625 C 300.574219 193.472656 301.859375 193.148438 303.160156 192.695312 C 303.808594 192.464844 304.460938 192.214844 305.109375 191.84375 C 305.433594 191.65625 305.761719 191.445312 306.078125 191.109375 C 306.15625 191.023438 306.234375 190.925781 306.304688 190.816406 C 306.335938 190.765625 306.375 190.691406 306.398438 190.644531 L 306.429688 190.585938 C 306.527344 190.828125 306.679688 191.15625 306.914062 191.566406 C 307.164062 192 307.507812 192.519531 308 193.054688 C 308.488281 193.582031 309.136719 194.136719 309.996094 194.519531 C 310.851562 194.90625 311.941406 195.070312 313.039062 194.804688 C 314.136719 194.550781 315.175781 193.898438 316.035156 193.027344 C 316.902344 192.160156 317.609375 191.082031 318.175781 189.90625 C 318.742188 188.722656 319.164062 187.433594 319.449219 186.085938 C 320.03125 183.289062 320.003906 180.550781 319.558594 178.144531 Z M 314.714844 169.191406 C 315.148438 169.132812 315.574219 169.21875 315.953125 169.421875 C 316.335938 169.628906 316.664062 169.933594 316.949219 170.273438 C 317.230469 170.617188 317.46875 170.992188 317.671875 171.375 C 318.085938 172.144531 318.375 172.9375 318.605469 173.703125 C 318.832031 174.46875 318.996094 175.207031 319.121094 175.902344 C 319.175781 176.21875 319.222656 176.523438 319.261719 176.820312 C 318.8125 175.121094 318.148438 173.636719 317.335938 172.484375 C 316.8125 171.738281 316.238281 171.132812 315.660156 170.6875 C 315.085938 170.238281 314.511719 169.957031 314.027344 169.796875 C 313.839844 169.738281 313.675781 169.699219 313.519531 169.667969 C 313.902344 169.421875 314.308594 169.246094 314.714844 169.191406 Z M 312.859375 194.09375 C 311.933594 194.34375 311.003906 194.246094 310.238281 193.941406 C 309.464844 193.640625 308.84375 193.167969 308.351562 192.707031 C 307.855469 192.238281 307.488281 191.769531 307.199219 191.378906 C 306.882812 190.9375 306.664062 190.59375 306.519531 190.382812 C 306.574219 190.257812 306.632812 190.132812 306.679688 190.007812 C 307.195312 188.640625 307.460938 187.296875 307.71875 185.972656 C 307.96875 184.652344 308.175781 183.355469 308.382812 182.085938 C 308.804688 179.550781 309.214844 177.109375 309.898438 174.898438 C 310.246094 173.804688 310.664062 172.753906 311.277344 171.921875 C 311.867188 171.128906 312.511719 170.40625 313.230469 169.871094 C 313.425781 169.933594 313.648438 170.007812 313.902344 170.121094 C 314.335938 170.316406 314.839844 170.617188 315.34375 171.070312 C 315.851562 171.515625 316.355469 172.109375 316.8125 172.832031 C 316.976562 173.085938 317.128906 173.363281 317.277344 173.648438 C 317.140625 173.496094 316.996094 173.34375 316.835938 173.210938 C 316.554688 172.972656 316.222656 172.769531 315.855469 172.65625 C 315.492188 172.542969 315.09375 172.523438 314.730469 172.601562 C 314.367188 172.679688 314.039062 172.839844 313.761719 173.03125 C 313.207031 173.421875 312.820312 173.917969 312.503906 174.410156 C 312.1875 174.90625 311.949219 175.40625 311.75 175.890625 C 311.359375 176.867188 311.132812 177.785156 310.980469 178.59375 C 310.828125 179.402344 310.753906 180.105469 310.714844 180.683594 C 310.648438 181.835938 310.710938 182.472656 310.765625 182.472656 C 310.832031 182.476562 310.886719 181.84375 311.058594 180.71875 C 311.148438 180.160156 311.269531 179.476562 311.464844 178.699219 C 311.65625 177.921875 311.917969 177.046875 312.328125 176.136719 C 312.53125 175.6875 312.773438 175.226562 313.074219 174.789062 C 313.371094 174.351562 313.734375 173.929688 314.171875 173.640625 C 314.609375 173.347656 315.128906 173.230469 315.617188 173.398438 C 316.109375 173.5625 316.554688 173.984375 316.910156 174.496094 C 317.265625 175.007812 317.550781 175.609375 317.78125 176.25 C 318.011719 176.890625 318.191406 177.570312 318.328125 178.273438 C 318.597656 179.679688 318.703125 181.175781 318.660156 182.707031 C 318.613281 184.234375 318.417969 185.722656 318.066406 187.113281 C 317.886719 187.804688 317.667969 188.472656 317.398438 189.097656 C 317.132812 189.722656 316.8125 190.308594 316.425781 190.800781 C 316.039062 191.289062 315.574219 191.683594 315.074219 191.816406 C 314.574219 191.957031 314.0625 191.808594 313.644531 191.492188 C 313.222656 191.175781 312.886719 190.734375 312.613281 190.28125 C 312.339844 189.824219 312.125 189.351562 311.949219 188.886719 C 311.597656 187.957031 311.386719 187.066406 311.238281 186.28125 C 311.089844 185.492188 311.011719 184.804688 310.953125 184.238281 C 310.847656 183.109375 310.832031 182.472656 310.765625 182.472656 C 310.710938 182.46875 310.609375 183.101562 310.609375 184.257812 C 310.613281 184.832031 310.644531 185.539062 310.75 186.359375 C 310.855469 187.171875 311.027344 188.101562 311.359375 189.097656 C 311.527344 189.597656 311.738281 190.113281 312.023438 190.625 C 312.308594 191.132812 312.667969 191.652344 313.199219 192.074219 C 313.464844 192.28125 313.777344 192.464844 314.136719 192.5625 C 314.496094 192.660156 314.894531 192.664062 315.265625 192.570312 C 315.300781 192.5625 315.332031 192.550781 315.363281 192.542969 C 314.621094 193.296875 313.753906 193.855469 312.859375 194.09375 Z M 312.859375 194.09375 " fill-opacity="1" fill-rule="evenodd"/><g fill="#6ebddf" fill-opacity="1"><g transform="translate(151.197652, 192.749987)"><g><path d="M 17.28125 0 L 15.484375 0 L 13.640625 -2.71875 L 3.875 -2.71875 L 2.046875 0 L 0.25 0 L 8.375 -12.015625 L 9.15625 -12.015625 Z M 12.640625 -4.203125 L 8.765625 -9.9375 L 4.890625 -4.203125 Z M 12.640625 -4.203125 "/></g></g></g><g fill="#6ebddf" fill-opacity="1"><g transform="translate(168.730869, 192.749987)"><g><path d="M 11.9375 0 C 12.96875 0 13.847656 -0.363281 14.578125 -1.09375 C 15.304688 -1.820312 15.671875 -2.703125 15.671875 -3.734375 L 15.671875 -12.015625 L 14.171875 -12.015625 L 14.171875 -3.734375 C 14.171875 -3.117188 13.953125 -2.585938 13.515625 -2.140625 C 13.085938 -1.703125 12.5625 -1.484375 11.9375 -1.484375 L 4.984375 -1.484375 C 4.367188 -1.484375 3.84375 -1.703125 3.40625 -2.140625 C 2.96875 -2.585938 2.75 -3.117188 2.75 -3.734375 L 2.75 -12.015625 L 1.25 -12.015625 L 1.25 -3.734375 C 1.25 -2.703125 1.613281 -1.820312 2.34375 -1.09375 C 3.070312 -0.363281 3.953125 0 4.984375 0 Z M 11.9375 0 "/></g></g></g><g fill="#6ebddf" fill-opacity="1"><g transform="translate(185.65256, 192.749987)"><g><path d="M 18.390625 0 L 16.90625 0 L 16.90625 -8.96875 L 10.421875 0 L 9.65625 0 L 3.171875 -8.96875 L 3.171875 0 L 1.671875 0 L 1.671875 -12.015625 L 2.796875 -12.015625 L 10.03125 -2.015625 L 17.265625 -12.015625 L 18.390625 -12.015625 Z M 18.390625 0 "/></g></g></g><g fill="#045217" fill-opacity="1"><g transform="translate(158.428258, 204.808055)"><g><path d="M 1.875 0 L 0.875 0 L 0.875 -6.296875 L 6.875 -6.296875 C 7.289062 -6.296875 7.644531 -6.144531 7.9375 -5.84375 C 8.226562 -5.550781 8.375 -5.203125 8.375 -4.796875 L 8.375 -3.765625 C 8.375 -3.359375 8.226562 -3.003906 7.9375 -2.703125 C 7.644531 -2.410156 7.289062 -2.265625 6.875 -2.265625 L 1.875 -2.265625 Z M 6.875 -3.265625 C 7.007812 -3.265625 7.125 -3.3125 7.21875 -3.40625 C 7.320312 -3.507812 7.375 -3.628906 7.375 -3.765625 L 7.375 -4.796875 C 7.375 -4.929688 7.320312 -5.046875 7.21875 -5.140625 C 7.125 -5.242188 7.007812 -5.296875 6.875 -5.296875 L 1.875 -5.296875 L 1.875 -3.265625 Z M 6.875 -3.265625 "/></g></g><g transform="translate(167.462903, 204.808055)"><g><path d="M 9.171875 0 L 7.96875 0 L 7.046875 -1.359375 L 2.265625 -1.359375 L 1.34375 0 L 0.125 0 L 4.390625 -6.296875 L 4.921875 -6.296875 Z M 6.359375 -2.359375 L 4.65625 -4.90625 L 2.9375 -2.359375 Z M 6.359375 -2.359375 "/></g></g><g transform="translate(176.769596, 204.808055)"><g><path d="M 8.375 0 L 7.375 0 L 7.375 -1.765625 C 7.375 -1.910156 7.320312 -2.03125 7.21875 -2.125 C 7.125 -2.21875 7.007812 -2.265625 6.875 -2.265625 L 1.875 -2.265625 L 1.875 0 L 0.875 0 L 0.875 -6.296875 L 6.875 -6.296875 C 7.289062 -6.296875 7.644531 -6.144531 7.9375 -5.84375 C 8.226562 -5.550781 8.375 -5.203125 8.375 -4.796875 L 8.375 -3.765625 C 8.375 -3.378906 8.242188 -3.046875 7.984375 -2.765625 C 8.242188 -2.484375 8.375 -2.148438 8.375 -1.765625 Z M 6.875 -3.265625 C 7.007812 -3.265625 7.125 -3.3125 7.21875 -3.40625 C 7.320312 -3.507812 7.375 -3.628906 7.375 -3.765625 L 7.375 -4.796875 C 7.375 -4.929688 7.320312 -5.046875 7.21875 -5.140625 C 7.125 -5.242188 7.007812 -5.296875 6.875 -5.296875 L 1.875 -5.296875 L 1.875 -3.265625 Z M 6.875 -3.265625 "/></g></g><g transform="translate(185.80424, 204.808055)"><g><path d="M 6.15625 0 C 6.707031 0 7.175781 -0.191406 7.5625 -0.578125 C 7.957031 -0.972656 8.15625 -1.445312 8.15625 -2 L 7.15625 -2 C 7.15625 -1.71875 7.054688 -1.476562 6.859375 -1.28125 C 6.660156 -1.09375 6.425781 -1 6.15625 -1 L 2.65625 -1 C 2.375 -1 2.132812 -1.09375 1.9375 -1.28125 C 1.75 -1.476562 1.65625 -1.71875 1.65625 -2 L 1.65625 -4.296875 C 1.65625 -4.566406 1.75 -4.800781 1.9375 -5 C 2.132812 -5.195312 2.375 -5.296875 2.65625 -5.296875 L 6.15625 -5.296875 C 6.425781 -5.296875 6.660156 -5.195312 6.859375 -5 C 7.054688 -4.800781 7.15625 -4.566406 7.15625 -4.296875 L 8.15625 -4.296875 C 8.15625 -4.847656 7.957031 -5.316406 7.5625 -5.703125 C 7.175781 -6.097656 6.707031 -6.296875 6.15625 -6.296875 L 2.65625 -6.296875 C 2.101562 -6.296875 1.628906 -6.097656 1.234375 -5.703125 C 0.847656 -5.316406 0.65625 -4.847656 0.65625 -4.296875 L 0.65625 -2 C 0.65625 -1.445312 0.847656 -0.972656 1.234375 -0.578125 C 1.628906 -0.191406 2.101562 0 2.65625 0 Z M 6.15625 0 "/></g></g><g transform="translate(194.619491, 204.808055)"><g/></g><g transform="translate(196.848534, 204.808055)"><g><path d="M 9.171875 0 L 7.96875 0 L 7.046875 -1.359375 L 2.265625 -1.359375 L 1.34375 0 L 0.125 0 L 4.390625 -6.296875 L 4.921875 -6.296875 Z M 6.359375 -2.359375 L 4.65625 -4.90625 L 2.9375 -2.359375 Z M 6.359375 -2.359375 "/></g></g><g transform="translate(206.155227, 204.808055)"><g><path d="M 6.15625 0 C 6.707031 0 7.175781 -0.191406 7.5625 -0.578125 C 7.957031 -0.972656 8.15625 -1.445312 8.15625 -2 L 8.15625 -6.296875 L 7.15625 -6.296875 L 7.15625 -2 C 7.15625 -1.71875 7.054688 -1.476562 6.859375 -1.28125 C 6.660156 -1.09375 6.425781 -1 6.15625 -1 L 2.65625 -1 C 2.375 -1 2.132812 -1.09375 1.9375 -1.28125 C 1.75 -1.476562 1.65625 -1.71875 1.65625 -2 L 1.65625 -6.296875 L 0.65625 -6.296875 L 0.65625 -2 C 0.65625 -1.445312 0.847656 -0.972656 1.234375 -0.578125 C 1.628906 -0.191406 2.101562 0 2.65625 0 Z M 6.15625 0 "/></g></g><g transform="translate(214.970477, 204.808055)"><g><path d="M 3.984375 0 L 2.984375 0 L 2.984375 -5.296875 L 0.125 -5.296875 L 0.125 -6.296875 L 6.828125 -6.296875 L 6.828125 -5.296875 L 3.984375 -5.296875 Z M 3.984375 0 "/></g></g><g transform="translate(221.934043, 204.808055)"><g><path d="M 6.15625 0 C 6.707031 0 7.175781 -0.191406 7.5625 -0.578125 C 7.957031 -0.972656 8.15625 -1.445312 8.15625 -2 L 8.15625 -4.296875 C 8.15625 -4.847656 7.957031 -5.316406 7.5625 -5.703125 C 7.175781 -6.097656 6.707031 -6.296875 6.15625 -6.296875 L 2.65625 -6.296875 C 2.101562 -6.296875 1.628906 -6.097656 1.234375 -5.703125 C 0.847656 -5.316406 0.65625 -4.847656 0.65625 -4.296875 L 0.65625 -2 C 0.65625 -1.445312 0.847656 -0.972656 1.234375 -0.578125 C 1.628906 -0.191406 2.101562 0 2.65625 0 Z M 6.15625 -1 L 2.65625 -1 C 2.375 -1 2.132812 -1.09375 1.9375 -1.28125 C 1.75 -1.476562 1.65625 -1.71875 1.65625 -2 L 1.65625 -4.296875 C 1.65625 -4.566406 1.75 -4.800781 1.9375 -5 C 2.132812 -5.195312 2.375 -5.296875 2.65625 -5.296875 L 6.15625 -5.296875 C 6.425781 -5.296875 6.660156 -5.195312 6.859375 -5 C 7.054688 -4.800781 7.15625 -4.566406 7.15625 -4.296875 L 7.15625 -2 C 7.15625 -1.71875 7.054688 -1.476562 6.859375 -1.28125 C 6.660156 -1.09375 6.425781 -1 6.15625 -1 Z M 6.15625 -1 "/></g></g></g></svg>